ffmpeg version 3.4.8-0ubuntu0.2 Copyright (c) 2000-2020 the FFmpeg developers
  built with gcc 7 (Ubuntu 7.5.0-3ubuntu1~18.04)
  configuration: --prefix=/usr --extra-version=0ubuntu0.2 --toolchain=hardened --libdir=/usr/lib/x86_64-linux-gnu --incdir=/usr/include/x86_64-linux-gnu --enable-gpl --disable-stripping --enable-avresample --enable-avisynth --enable-gnutls --enable-ladspa --enable-libass --enable-libbluray --enable-libbs2b --enable-libcaca --enable-libcdio --enable-libflite --enable-libfontconfig --enable-libfreetype --enable-libfribidi --enable-libgme --enable-libgsm --enable-libmp3lame --enable-libmysofa --enable-libopenjpeg --enable-libopenmpt --enable-libopus --enable-libpulse --enable-librubberband --enable-librsvg --enable-libshine --enable-libsnappy --enable-libsoxr --enable-libspeex --enable-libssh --enable-libtheora --enable-libtwolame --enable-libvorbis --enable-libvpx --enable-libwavpack --enable-libwebp --enable-libx265 --enable-libxml2 --enable-libxvid --enable-libzmq --enable-libzvbi --enable-omx --enable-openal --enable-opengl --enable-sdl2 --enable-libdc1394 --enable-libdrm --enable-libiec61883 --enable-chromaprint --enable-frei0r --enable-libopencv --enable-libx264 --enable-shared
  libavutil      55. 78.100 / 55. 78.100
  libavcodec     57.107.100 / 57.107.100
  libavformat    57. 83.100 / 57. 83.100
  libavdevice    57. 10.100 / 57. 10.100
  libavfilter     6.107.100 /  6.107.100
  libavresample   3.  7.  0 /  3.  7.  0
  libswscale      4.  8.100 /  4.  8.100
  libswresample   2.  9.100 /  2.  9.100
  libpostproc    54.  7.100 / 54.  7.100
[rawvideo @ 0x55b3902bda20] Estimating duration from bitrate, this may be inaccurate
Input #0, rawvideo, from '../../SVC-Encoder-20220109T061506Z-001/SVC-Encoder/Dataset/RollerCoaster/6f_2x2/tile_yuv/f4_t0_480x480.yuv':
  Duration: 00:00:10.00, start: 0.000000, bitrate: 82944 kb/s
    Stream #0:0: Video: rawvideo (I420 / 0x30323449), yuv420p, 480x480, 82944 kb/s, 30 tbr, 30 tbn, 30 tbc
Stream mapping:
  Stream #0:0 -> #0:0 (rawvideo (native) -> h264 (libx264))
Press [q] to stop, [?] for help
[libx264 @ 0x55b3902cac60] using cpu capabilities: MMX2 SSE2Fast LZCNT SSSE3 SSE4.2 AVX
[libx264 @ 0x55b3902cac60] profile High, level 3.0
Output #0, rawvideo, to 'RollerCoaster_f4_t0_480x480_x264_QP_40.h264':
  Metadata:
    encoder         : Lavf57.83.100
    Stream #0:0: Video: h264 (libx264), yuv420p, 480x480, q=-1--1, 30 fps, 30 tbn, 30 tbc
    Metadata:
      encoder         : Lavc57.107.100 libx264
    Side data:
      cpb: bitrate max/min/avg: 0/0/0 buffer size: 0 vbv_delay: -1
frame=  158 fps=0.0 q=46.0 PSNR=Y:nan U:nan V:nan *:nan size=      22kB time=00:00:03.83 bitrate=  47.8kbits/s speed=7.65x    frame=  300 fps=291 q=46.0 LPSNR=Y:inf U:inf V:inf *:inf size=      50kB time=00:00:09.93 bitrate=  40.9kbits/s speed=9.62x    
video:50kB audio:0kB subtitle:0kB other streams:0kB global headers:0kB muxing overhead: 0.000000%
[libx264 @ 0x55b3902cac60] frame I:2     Avg QP:37.97  size:  3560  PSNR Mean Y:33.95 U:42.96 V:45.24 Avg:35.50 Global:35.39
[libx264 @ 0x55b3902cac60] frame P:76    Avg QP:40.14  size:   345  PSNR Mean Y:32.82 U:42.64 V:44.75 Avg:34.40 Global:34.38
[libx264 @ 0x55b3902cac60] frame B:222   Avg QP:45.54  size:    78  PSNR Mean Y:32.64 U:42.58 V:44.71 Avg:34.23 Global:34.20
[libx264 @ 0x55b3902cac60] consecutive B-frames:  1.3%  0.0%  0.0% 98.7%
[libx264 @ 0x55b3902cac60] mb I  I16..4: 24.9% 70.6%  4.4%
[libx264 @ 0x55b3902cac60] mb P  I16..4:  0.2%  0.7%  0.0%  P16..4: 15.2%  1.1%  0.2%  0.0%  0.0%    skip:82.6%
[libx264 @ 0x55b3902cac60] mb B  I16..4:  0.0%  0.0%  0.0%  B16..8:  7.1%  0.0%  0.0%  direct: 0.0%  skip:92.9%  L0:38.5% L1:61.5% BI: 0.0%
[libx264 @ 0x55b3902cac60] 8x8 transform intra:72.5% inter:84.9%
[libx264 @ 0x55b3902cac60] coded y,uvDC,uvAC intra: 18.7% 16.6% 0.2% inter: 0.5% 0.2% 0.0%
[libx264 @ 0x55b3902cac60] i16 v,h,dc,p: 26% 48% 18%  9%
[libx264 @ 0x55b3902cac60] i8 v,h,dc,ddl,ddr,vr,hd,vl,hu:  2%  4% 76%  2%  4%  1%  6%  3%  2%
[libx264 @ 0x55b3902cac60] i4 v,h,dc,ddl,ddr,vr,hd,vl,hu:  4% 11% 36%  6% 12%  4% 22%  2%  2%
[libx264 @ 0x55b3902cac60] i8c dc,h,v,p: 92%  5%  2%  1%
[libx264 @ 0x55b3902cac60] Weighted P-Frames: Y:1.3% UV:0.0%
[libx264 @ 0x55b3902cac60] ref P L0: 64.9%  9.3% 18.3%  7.6%  0.0%
[libx264 @ 0x55b3902cac60] ref B L0: 59.2% 36.1%  4.7%
[libx264 @ 0x55b3902cac60] ref B L1: 64.6% 35.4%
[libx264 @ 0x55b3902cac60] PSNR Mean Y:32.694 U:42.594 V:44.724 Avg:34.279 Global:34.254 kb/s:40.58
